#N canvas -431 -1033 1105 840 12;
#X obj 58 45 inlet;
#X obj 447 32 loadbang;
#X msg 484 120 args 0;
#X obj 484 143 pdcontrol;
#X obj 484 212 until;
#X obj 484 166 t l l;
#X obj 484 302 list store;
#X obj 484 325 list split 1;
#X obj 484 363 route float symbol;
#X obj 484 189 list length;
#X obj 484 236 t b b;
#X obj 516 260 f;
#X obj 546 260 + 1;
#X msg 547 236 0;
#X obj 484 762 s pd-\$0-routing;
#X msg 948 617 clear;
#X obj 484 97 t b b;
#X obj 484 502 list trim;
#X obj 484 478 list prepend;
#X msg 565 455 obj 100 \$1 route;
#X obj 565 409 * 24;
#X obj 565 432 + 100;
#X msg 695 619 obj 100 76 inlet;
#X obj 484 539 t b a, f 15;
#X obj 484 562 f;
#X obj 339 600 t f f;
#X obj 371 624 * 24;
#X obj 565 386 t f f f;
#X obj 339 560 f;
#X msg 339 681 obj 100 \$1 outlet;
#X obj 339 658 + 124;
#X obj 484 615 + 0;
#X obj 551 615 + 1;
#X obj 484 585 t f f f;
#X obj 484 644 pack f f f;
#X msg 484 681 connect \$1 \$2 \$3 0;
#X obj 517 615 > 0;
#X obj 339 624 + 1;
#X msg 104 181 1;
#X msg 215 182 0;
#X obj 58 222 spigot;
#X obj 215 156 t b a;
#X obj 58 80 t a a b;
#X obj 58 258 outlet;
#X obj 247 258 outlet;
#X obj 695 595 \$0;
#N canvas -363 -922 275 194 \$0-inout 0;
#X obj 33 35 inlet;
#X obj 33 142 outlet;
#N canvas -363 -626 290 261 \$0-routing 0;
#X obj 100 76 inlet;
#X obj 100 124 outlet;
#X restore 33 90 pd \$0-routing;
#X connect 0 0 2 0;
#X connect 2 0 1 0;
#X restore 81 113 pd \$0-inout;
#X obj 447 56 t b b b b b;
#X obj 62 762 s pd-\$0-inout;
#X msg 62 681 connect 0 0 2 0 \, connect 2 0 1 0;
#X text 65 707 5) connections for inout;
#X text 311 709 4) outlet and connection;
#X text 600 541 3) each route and connection;
#X text 817 618 2) inlet;
#X text 993 617 1) clear;
#X connect 0 0 42 0;
#X connect 1 0 47 0;
#X connect 2 0 3 0;
#X connect 3 0 5 0;
#X connect 4 0 10 0;
#X connect 5 0 9 0;
#X connect 5 1 6 1;
#X connect 6 0 7 0;
#X connect 7 0 8 0;
#X connect 7 1 6 1;
#X connect 8 0 18 0;
#X connect 8 1 18 0;
#X connect 9 0 4 0;
#X connect 10 0 6 0;
#X connect 10 1 11 0;
#X connect 11 0 12 0;
#X connect 11 0 27 0;
#X connect 12 0 11 1;
#X connect 13 0 11 1;
#X connect 15 0 14 0;
#X connect 16 0 2 0;
#X connect 16 1 13 0;
#X connect 17 0 23 0;
#X connect 18 0 17 0;
#X connect 19 0 18 1;
#X connect 20 0 21 0;
#X connect 21 0 19 0;
#X connect 22 0 14 0;
#X connect 23 0 24 0;
#X connect 23 1 14 0;
#X connect 24 0 33 0;
#X connect 25 0 37 0;
#X connect 25 1 26 0;
#X connect 26 0 30 0;
#X connect 27 0 20 0;
#X connect 27 1 24 1;
#X connect 27 2 28 1;
#X connect 28 0 25 0;
#X connect 29 0 14 0;
#X connect 30 0 29 0;
#X connect 31 0 34 0;
#X connect 32 0 34 2;
#X connect 33 0 31 0;
#X connect 33 1 36 0;
#X connect 33 2 32 0;
#X connect 34 0 35 0;
#X connect 35 0 14 0;
#X connect 36 0 34 1;
#X connect 37 0 33 0;
#X connect 38 0 40 1;
#X connect 39 0 40 1;
#X connect 40 0 43 0;
#X connect 41 0 39 0;
#X connect 41 1 44 0;
#X connect 42 0 40 0;
#X connect 42 1 46 0;
#X connect 42 2 38 0;
#X connect 45 0 22 0;
#X connect 46 0 41 0;
#X connect 47 0 49 0;
#X connect 47 1 28 0;
#X connect 47 2 16 0;
#X connect 47 3 45 0;
#X connect 47 4 15 0;
#X connect 49 0 48 0;
